# xmcd CD database file generated by Grip 2.96
#
# Track frame offsets:
#       150
#       12962
#       30592
#       59642
#       81960
#       99587
#       116115
#       130592
#       146460
#       168700
#       185742
#       216455
#
# Disc length: 3111 seconds
#
# Revision: 0
# Processed by: cddbd v1.4PL0 Copyright (c) Steve Scherf et al.
# Submitted via: Grip 2.96
#
DISCID=b10c250c
DTITLE=Bluespumpm - Birthday
DYEAR=1900
DGENRE=
TTITLE0=Tribute to bo
TTITLE1=Before I go
TTITLE2=Key to the highway
TTITLE3=Green onions - Checkin' up my baby
TTITLE4=I've been trying
TTITLE5=Feeling allright
TTITLE6=Chicken Blues
TTITLE7=They went crazy
TTITLE8=Frogs dance
TTITLE9=Happy to have found
TTITLE10=The game
TTITLE11=Birthday
EXTD=
EXTT0=
EXTT1=
EXTT2=
EXTT3=
EXTT4=
EXTT5=
EXTT6=
EXTT7=
EXTT8=
EXTT9=
EXTT10=
EXTT11=
PLAYORDER=
